<svg width="60" height="60" viewBox="0 0 120 120" fill="none" xmlns="http://www.w3.org/2000/svg">
<path d="M40 73.3333C44.3782 73.339 48.7144 72.4794 52.7593 70.8038C56.8043 69.1283 60.4782 66.6699 63.57 63.57C66.67 60.4782 69.1283 56.8043 70.8039 52.7593C72.4794 48.7144 73.339 44.3782 73.3333 40C73.3389 35.6218 72.4793 31.2856 70.8037 27.2407C69.1282 23.1958 66.6699 19.5218 63.57 16.43C60.4782 13.33 56.8043 10.8717 52.7593 9.19613C48.7144 7.52061 44.3782 6.66098 40 6.66665C35.6218 6.66107 31.2856 7.52074 27.2407 9.19626C23.1958 10.8718 19.5218 13.3301 16.43 16.43C13.3301 19.5218 10.8718 23.1958 9.19627 27.2407C7.52076 31.2856 6.66109 35.6218 6.66667 40C6.661 44.3782 7.52062 48.7144 9.19614 52.7593C10.8717 56.8043 13.33 60.4782 16.43 63.57C19.5218 66.6699 23.1958 69.1282 27.2407 70.8037C31.2856 72.4792 35.6218 73.3389 40 73.3333V73.3333Z" stroke="#C52C24" stroke-width="10" stroke-linejoin="round"/>
<path fill-rule="evenodd" clip-rule="evenodd" d="M40 61.6666C41.1051 61.6666 42.1649 61.2277 42.9463 60.4463C43.7277 59.6649 44.1667 58.605 44.1667 57.5C44.1667 56.3949 43.7277 55.3351 42.9463 54.5537C42.1649 53.7723 41.1051 53.3333 40 53.3333C38.8949 53.3333 37.8351 53.7723 37.0537 54.5537C36.2723 55.3351 35.8333 56.3949 35.8333 57.5C35.8333 58.605 36.2723 59.6649 37.0537 60.4463C37.8351 61.2277 38.8949 61.6666 40 61.6666V61.6666Z" fill="#C52C24"/>
<path d="M40 20V46.6667" stroke="#C52C24" stroke-width="10" stroke-linecap="round" stroke-linejoin="round"/>
</svg>
